<mxfile host="app.diagrams.net" agent="Mozilla/5.0 (Windows NT 10.0; Win64; x64; rv:132.0) Gecko/20100101 Firefox/132.0" version="24.8.6">
  <diagram name="Page-1" id="-HgC5L63C_GkgLuUP6XW">
    <mxGraphModel dx="828" dy="1555" grid="0" gridSize="10" guides="1" tooltips="1" connect="1" arrows="1" fold="1" page="0" pageScale="1" pageWidth="850" pageHeight="1100" math="0" shadow="0">
      <root>
        <mxCell id="0" />
        <mxCell id="1" parent="0" />
        <mxCell id="EESvHoa4h7tkutu7WCAN-1" value="Auto" style="swimlane;fontStyle=1;align=center;verticalAlign=top;childLayout=stackLayout;horizontal=1;startSize=26;horizontalStack=0;resizeParent=1;resizeParentMax=0;resizeLast=0;collapsible=1;marginBottom=0;whiteSpace=wrap;html=1;" vertex="1" parent="1">
          <mxGeometry x="275" y="-156" width="290" height="161" as="geometry" />
        </mxCell>
        <mxCell id="EESvHoa4h7tkutu7WCAN-2" value="&lt;div&gt;- alter: int&lt;/div&gt;&lt;div&gt;&lt;br&gt;&lt;/div&gt;- marke: String" style="text;strokeColor=none;fillColor=none;align=left;verticalAlign=top;spacingLeft=4;spacingRight=4;overflow=hidden;rotatable=0;points=[[0,0.5],[1,0.5]];portConstraint=eastwest;whiteSpace=wrap;html=1;" vertex="1" parent="EESvHoa4h7tkutu7WCAN-1">
          <mxGeometry y="26" width="290" height="66" as="geometry" />
        </mxCell>
        <mxCell id="EESvHoa4h7tkutu7WCAN-3" value="" style="line;strokeWidth=1;fillColor=none;align=left;verticalAlign=middle;spacingTop=-1;spacingLeft=3;spacingRight=3;rotatable=0;labelPosition=right;points=[];portConstraint=eastwest;strokeColor=inherit;" vertex="1" parent="EESvHoa4h7tkutu7WCAN-1">
          <mxGeometry y="92" width="290" height="8" as="geometry" />
        </mxCell>
        <mxCell id="EESvHoa4h7tkutu7WCAN-4" value="&lt;div&gt;+ Auto(alter: int, marke:String) &amp;lt;&amp;lt;create&amp;gt;&amp;gt;&lt;/div&gt;&lt;div&gt;+ fahren(): void&lt;br&gt;&lt;/div&gt;" style="text;strokeColor=none;fillColor=none;align=left;verticalAlign=top;spacingLeft=4;spacingRight=4;overflow=hidden;rotatable=0;points=[[0,0.5],[1,0.5]];portConstraint=eastwest;whiteSpace=wrap;html=1;" vertex="1" parent="EESvHoa4h7tkutu7WCAN-1">
          <mxGeometry y="100" width="290" height="61" as="geometry" />
        </mxCell>
        <mxCell id="EESvHoa4h7tkutu7WCAN-6" value="BenzinOderDieselAuto" style="swimlane;fontStyle=1;align=center;verticalAlign=top;childLayout=stackLayout;horizontal=1;startSize=26;horizontalStack=0;resizeParent=1;resizeParentMax=0;resizeLast=0;collapsible=1;marginBottom=0;whiteSpace=wrap;html=1;" vertex="1" parent="1">
          <mxGeometry x="34" y="161" width="478" height="111" as="geometry" />
        </mxCell>
        <mxCell id="EESvHoa4h7tkutu7WCAN-7" value="- kraftstoff: String" style="text;strokeColor=none;fillColor=none;align=left;verticalAlign=top;spacingLeft=4;spacingRight=4;overflow=hidden;rotatable=0;points=[[0,0.5],[1,0.5]];portConstraint=eastwest;whiteSpace=wrap;html=1;" vertex="1" parent="EESvHoa4h7tkutu7WCAN-6">
          <mxGeometry y="26" width="478" height="26" as="geometry" />
        </mxCell>
        <mxCell id="EESvHoa4h7tkutu7WCAN-8" value="" style="line;strokeWidth=1;fillColor=none;align=left;verticalAlign=middle;spacingTop=-1;spacingLeft=3;spacingRight=3;rotatable=0;labelPosition=right;points=[];portConstraint=eastwest;strokeColor=inherit;" vertex="1" parent="EESvHoa4h7tkutu7WCAN-6">
          <mxGeometry y="52" width="478" height="8" as="geometry" />
        </mxCell>
        <mxCell id="EESvHoa4h7tkutu7WCAN-9" value="&lt;div&gt;+ BenzinOderDieselAuto(alter: int, marke:String, kraftstoff: String) &amp;lt;&amp;lt;create&amp;gt;&amp;gt;&lt;/div&gt;&lt;div&gt;+ fahren(): void&lt;/div&gt;" style="text;strokeColor=none;fillColor=none;align=left;verticalAlign=top;spacingLeft=4;spacingRight=4;overflow=hidden;rotatable=0;points=[[0,0.5],[1,0.5]];portConstraint=eastwest;whiteSpace=wrap;html=1;" vertex="1" parent="EESvHoa4h7tkutu7WCAN-6">
          <mxGeometry y="60" width="478" height="51" as="geometry" />
        </mxCell>
        <mxCell id="EESvHoa4h7tkutu7WCAN-10" style="edgeStyle=none;curved=1;rounded=0;orthogonalLoop=1;jettySize=auto;html=1;entryX=0.49;entryY=0.951;entryDx=0;entryDy=0;entryPerimeter=0;fontSize=12;startSize=8;endSize=8;" edge="1" parent="1" source="EESvHoa4h7tkutu7WCAN-6" target="EESvHoa4h7tkutu7WCAN-4">
          <mxGeometry relative="1" as="geometry">
            <Array as="points">
              <mxPoint x="364" y="79" />
            </Array>
          </mxGeometry>
        </mxCell>
      </root>
    </mxGraphModel>
  </diagram>
</mxfile>
